<?xml version="1.0" encoding="UTF-8" standalone="no"?>
<!DOCTYPE svg PUBLIC "-//W3C//DTD SVG 1.1//EN" "http://www.w3.org/Graphics/SVG/1.1/DTD/svg11.dtd">
<svg width="100%" height="100%" viewBox="0 0 825 824" version="1.1" xmlns="http://www.w3.org/2000/svg" xmlns:xlink="http://www.w3.org/1999/xlink" xml:space="preserve" xmlns:serif="http://www.serif.com/" style="fill-rule:evenodd;clip-rule:evenodd;stroke-linejoin:round;stroke-miterlimit:2;">
    <g transform="matrix(1,0,0,1,1212,670)">
        <g transform="matrix(1,0,0,1,-1212,-670)">
            <g>
                <path d="M824,256.627C824,246.845 824,237.062 823.944,227.279C823.895,219.038 823.8,210.799 823.576,202.562C823.092,184.609 822.033,166.502 818.84,148.749C815.794,130.961 810.112,113.727 801.981,97.616C785.477,65.237 759.132,38.905 726.746,22.416C710.616,14.284 693.364,8.603 675.558,5.56C657.8,2.372 639.691,1.315 621.738,0.83C613.5,0.607 605.253,0.513 597.008,0.462C587.22,0.4 577.432,0.407 567.644,0.407L454,0L369,0L257.361,0.407C247.554,0.407 237.747,0.407 227.94,0.462C219.678,0.513 211.42,0.607 203.161,0.83C185.166,1.315 167.013,2.373 149.216,5.565C131.389,8.607 114.113,14.286 97.958,22.414C65.522,38.886 39.125,65.219 22.573,97.614C14.422,113.73 8.726,130.975 5.673,148.775C2.473,166.521 1.418,184.622 0.931,202.567C0.709,210.8 0.613,219.039 0.563,227.279C0.5,237.063 0,249.216 0,259L0,455L0.508,567.427C0.508,577.227 0.508,587.019 0.563,596.815C0.613,605.067 0.709,613.315 0.932,621.566C1.418,639.542 2.479,657.675 5.678,675.452C8.73,693.264 14.423,710.521 22.569,726.652C39.11,759.079 65.506,785.446 97.95,801.952C114.112,810.096 131.398,815.785 149.238,818.832C167.027,822.025 185.174,823.084 203.162,823.569C211.421,823.792 219.68,823.887 227.942,823.937C237.749,823.997 247.555,823.993 257.362,823.993L567.644,823.993C577.432,823.993 587.22,823.998 597.008,823.938C605.253,823.888 613.496,823.793 621.739,823.57C639.699,823.084 657.817,822.024 675.58,818.829C693.378,815.781 710.621,810.094 726.74,801.956C759.138,785.435 785.484,759.067 801.979,726.656C810.115,710.512 815.799,693.246 818.845,675.426C822.035,657.656 823.093,639.526 823.578,621.561C823.801,613.311 823.896,605.061 823.945,596.81C824.006,587.01 824.001,577.218 824.001,567.422C824.001,567.422 823.995,456.978 823.995,454.993L823.995,369C823.995,367.534 824.001,256.628 824.001,256.628" style="fill:rgb(18,24,38);fill-rule:nonzero;"/>
            </g>
            <g>
                <clipPath id="_clip1">
                    <path d="M824,256.627C824,246.845 824,237.062 823.944,227.279C823.895,219.038 823.8,210.799 823.576,202.562C823.092,184.609 822.033,166.502 818.84,148.749C815.794,130.961 810.112,113.727 801.981,97.616C785.477,65.237 759.132,38.905 726.746,22.416C710.616,14.284 693.364,8.603 675.558,5.56C657.8,2.372 639.691,1.315 621.738,0.83C613.5,0.607 605.253,0.513 597.008,0.462C587.22,0.4 577.432,0.407 567.644,0.407L454,0L369,0L257.361,0.407C247.554,0.407 237.747,0.407 227.94,0.462C219.678,0.513 211.42,0.607 203.161,0.83C185.166,1.315 167.013,2.373 149.216,5.565C131.389,8.607 114.113,14.286 97.958,22.414C65.522,38.886 39.125,65.219 22.573,97.614C14.422,113.73 8.726,130.975 5.673,148.775C2.473,166.521 1.418,184.622 0.931,202.567C0.709,210.8 0.613,219.039 0.563,227.279C0.5,237.063 0,249.216 0,259L0,455L0.508,567.427C0.508,577.227 0.508,587.019 0.563,596.815C0.613,605.067 0.709,613.315 0.932,621.566C1.418,639.542 2.479,657.675 5.678,675.452C8.73,693.264 14.423,710.521 22.569,726.652C39.11,759.079 65.506,785.446 97.95,801.952C114.112,810.096 131.398,815.785 149.238,818.832C167.027,822.025 185.174,823.084 203.162,823.569C211.421,823.792 219.68,823.887 227.942,823.937C237.749,823.997 247.555,823.993 257.362,823.993L567.644,823.993C577.432,823.993 587.22,823.998 597.008,823.938C605.253,823.888 613.496,823.793 621.739,823.57C639.699,823.084 657.817,822.024 675.58,818.829C693.378,815.781 710.621,810.094 726.74,801.956C759.138,785.435 785.484,759.067 801.979,726.656C810.115,710.512 815.799,693.246 818.845,675.426C822.035,657.656 823.093,639.526 823.578,621.561C823.801,613.311 823.896,605.061 823.945,596.81C824.006,587.01 824.001,577.218 824.001,567.422C824.001,567.422 823.995,456.978 823.995,454.993L823.995,369C823.995,367.534 824.001,256.628 824.001,256.628"/>
                </clipPath>
                <g clip-path="url(#_clip1)">
                    <rect x="0" y="0" width="824" height="824" style="fill:none;"/>
                </g>
            </g>
        </g>
        <g transform="matrix(1,0,0,1,-1334,-1529)">
            <g transform="matrix(1,0,0,1,547.057,1277.78)">
                <ellipse cx="124.469" cy="124.468" rx="124.469" ry="124.468" style="fill:white;"/>
            </g>
            <g transform="matrix(-3.82857e-16,1,-1,-3.82857e-16,795.993,1415.83)">
                <path d="M0,0L91.943,0C114.337,-0 132.765,18.428 132.765,40.822C132.765,63.216 130.327,85.697 118.193,126.548C106.059,167.399 104.027,172.555 85.509,199.215C66.991,225.875 0,248.937 0,248.937L0,0Z" style="fill:white;fill-rule:nonzero;"/>
            </g>
            <g transform="matrix(-3.82857e-16,1,-1,-3.82857e-16,803.132,993.361)">
                <ellipse cx="130.276" cy="130.275" rx="130.276" ry="130.275" style="fill:white;"/>
            </g>
            <g transform="matrix(-1,-7.65714e-16,7.65714e-16,-1,822.872,1253.91)">
                <path d="M30,0L138.96,0L138.96,260.552L30,260.552C13.542,260.552 0,247.01 0,230.552L0,30C-0,13.542 13.542,0 30,0Z" style="fill:white;fill-rule:nonzero;"/>
            </g>
            <g transform="matrix(-3.82857e-16,1,-1,-3.82857e-16,770.745,1025.75)">
                <circle cx="97.889" cy="97.889" r="97.889" style="fill:rgb(18,24,38);"/>
            </g>
            <g transform="matrix(-3.82857e-16,1,-1,-3.82857e-16,765.049,1309.17)">
                <circle cx="93.616" cy="93.616" r="93.616" style="fill:rgb(18,24,38);"/>
            </g>
            <g transform="matrix(-3.82857e-16,1,-1,-3.82857e-16,525.206,993.362)">
                <circle cx="130.276" cy="130.276" r="130.276" style="fill:white;"/>
            </g>
            <g transform="matrix(1,0,0,1,244.917,993.361)">
                <path d="M30,0L138.961,0L138.961,260.552L30,260.552C13.542,260.552 0,247.01 0,230.552L0,30C-0,13.542 13.542,0 30,0Z" style="fill:white;fill-rule:nonzero;"/>
            </g>
            <g transform="matrix(-3.82857e-16,1,-1,-3.82857e-16,492.819,1025.75)">
                <circle cx="97.889" cy="97.889" r="97.889" style="fill:rgb(18,24,38);"/>
            </g>
            <g transform="matrix(-1,-7.65714e-16,7.65714e-16,-1,525.388,1526.72)">
                <ellipse cx="124.469" cy="124.468" rx="124.469" ry="124.468" style="fill:white;"/>
            </g>
            <g transform="matrix(-3.82857e-16,1,-1,-3.82857e-16,525.391,1415.83)">
                <path d="M0,248.938L91.943,248.938C114.337,248.938 132.765,230.51 132.765,208.116C132.765,185.722 130.327,163.241 118.193,122.39C106.059,81.539 104.028,76.382 85.509,49.723C66.99,23.064 0,0 0,0L0,248.938Z" style="fill:white;fill-rule:nonzero;"/>
            </g>
            <g transform="matrix(-3.82857e-16,1,-1,-3.82857e-16,494.632,1309.17)">
                <circle cx="93.616" cy="93.616" r="93.616" style="fill:rgb(18,24,38);"/>
            </g>
        </g>
    </g>
</svg>
